<?xml version="1.0" encoding="utf-8"?>
<!-- Generator: Adobe Illustrator 28.0.0, SVG Export Plug-In . SVG Version: 6.00 Build 0)  -->
<svg version="1.1" id="Layer_1" xmlns="http://www.w3.org/2000/svg" xmlns:xlink="http://www.w3.org/1999/xlink" x="0px" y="0px"
	 viewBox="0 0 480 240" style="enable-background:new 0 0 480 240;" xml:space="preserve">
<style type="text/css">
	.st0{fill:#FFFFFF;}
</style>
<g>
	
		<rect x="225.6" y="-16.9" transform="matrix(9.779181e-02 -0.9952 0.9952 9.779181e-02 167.6371 280.5772)" class="st0" width="25.9" height="129.4"/>
	
		<rect x="173.7" y="94.4" transform="matrix(0.9959 -9.087470e-02 9.087470e-02 0.9959 -8.7671 22.1063)" class="st0" width="129.4" height="25.9"/>
	<polygon class="st0" points="153,149.3 30.5,191.2 49.8,47.8 	"/>
	
		<rect x="225.6" y="110.4" transform="matrix(0.1072 -0.9942 0.9942 0.1072 38.9166 393.5083)" class="st0" width="25.9" height="129.4"/>
	<polygon class="st0" points="448.2,34.8 426.5,64.3 404.9,93.8 394.1,108.6 394.1,108.6 394.1,108.6 379.3,97.8 349.8,76.1 
		320.2,54.4 	"/>
	<polygon class="st0" points="449.5,139.6 341.8,211.4 341.8,211.4 359.9,121.6 359.9,121.6 359.9,121.6 	"/>
</g>
</svg>
